<svg xmlns="http://www.w3.org/2000/svg" viewBox="0 0 200 200">
  <defs>
    <linearGradient id="folderBackGradIcon" x1="0%" y1="0%" x2="100%" y2="100%">
      <stop offset="0%" stop-color="#E91E63" />
      <stop offset="60%" stop-color="#7B1FA2" />
      <stop offset="100%" stop-color="#1E88E5" />
    </linearGradient>
    <linearGradient id="folderFrontGradIcon" x1="0%" y1="0%" x2="100%" y2="100%">
      <stop offset="0%" stop-color="#FF2A7A" />
      <stop offset="50%" stop-color="#8E24AA" />
      <stop offset="100%" stop-color="#2979FF" />
    </linearGradient>
    <filter id="dropShadowIcon" x="-10%" y="-10%" width="130%" height="130%">
      <feDropShadow dx="2" dy="6" stdDeviation="5" flood-opacity="0.2"/>
    </filter>
  </defs>

  <g transform="translate(4, 18)">
    <path d="M 25,25 L 75,25 Q 85,25 92,35 L 105,52 Q 110,58 120,58 L 180,58 Q 192,58 192,70 L 192,145 Q 192,155 180,155 L 25,155 Q 15,155 15,145 L 15,37 Q 15,25 25,25 Z"
          fill="url(#folderBackGradIcon)" opacity="0.95" />
    <path d="M 25,48 L 175,48 Q 190,48 185,65 L 165,148 Q 162,158 150,158 L 18,158 Q 6,158 10,146 L 22,58 Q 24,48 25,48 Z"
          fill="url(#folderFrontGradIcon)" filter="url(#dropShadowIcon)" />
    <path d="M 26,50 L 173,50" stroke="rgba(255,255,255,0.4)" stroke-width="2.5" stroke-linecap="round"/>
    <path d="M 98,82 C 98,72 88,65 77,65 C 66,65 59,73 59,81 C 59,73 52,65 41,65 C 30,65 20,72 20,82 C 20,102 59,128 59,128 C 59,128 98,102 98,82 Z"
          transform="translate(42, 5)"
          fill="#FFFFFF" />
  </g>
</svg>
